<?xml version="1.0" encoding="UTF-8" standalone="no"?>
<!-- Created with Inkscape (http://www.inkscape.org/) -->

<svg
   xmlns:dc="http://purl.org/dc/elements/1.1/"
   xmlns:cc="http://creativecommons.org/ns#"
   xmlns:rdf="http://www.w3.org/1999/02/22-rdf-syntax-ns#"
   xmlns:svg="http://www.w3.org/2000/svg"
   xmlns="http://www.w3.org/2000/svg"
   xmlns:sodipodi="http://sodipodi.sourceforge.net/DTD/sodipodi-0.dtd"
   xmlns:inkscape="http://www.inkscape.org/namespaces/inkscape"
   version="1.1"
   id="svg5745"
   xml:space="preserve"
   width="528"
   height="384"
   viewBox="0 0 528 384"
   sodipodi:docname="figure_1_d.svg"
   inkscape:version="0.92.3 (2405546, 2018-03-11)"><metadata
     id="metadata5751"><rdf:RDF><cc:Work
         rdf:about=""><dc:format>image/svg+xml</dc:format><dc:type
           rdf:resource="http://purl.org/dc/dcmitype/StillImage" /><dc:title></dc:title></cc:Work></rdf:RDF></metadata><defs
     id="defs5749" /><sodipodi:namedview
     pagecolor="#ffffff"
     bordercolor="#666666"
     borderopacity="1"
     objecttolerance="10"
     gridtolerance="10"
     guidetolerance="10"
     inkscape:pageopacity="0"
     inkscape:pageshadow="2"
     inkscape:window-width="1920"
     inkscape:window-height="1009"
     id="namedview5747"
     showgrid="false"
     showguides="false"
     inkscape:zoom="1.2291667"
     inkscape:cx="-79.055428"
     inkscape:cy="252.00826"
     inkscape:window-x="-8"
     inkscape:window-y="-8"
     inkscape:window-maximized="1"
     inkscape:current-layer="layer1" /><g
     inkscape:groupmode="layer"
     id="layer5"
     inkscape:label="network purchases"
     style="display:none"><path
       transform="matrix(1.3333333,0,0,-1.3333333,0,384)"
       d="m 130.16039,44.073076 h 0.70264 l 0.71481,0.0065 0.71582,0.01284 0.70265,0.03211 0.71481,0.03231 0.70264,0.0449 0.71481,0.05811 0.70264,0.06425 0.71583,0.0644 0.71481,0.06441 0.70264,0.07075 0.71582,0.07091 0.70163,0.0707 0.71583,0.07096 0.71481,0.0707 0.70264,0.07741 0.71481,0.109357 0.70264,0.122309 0.71583,0.135159 0.70264,0.148164 0.71481,0.186768 0.71582,0.231662 0.70265,0.257469 0.71481,0.263969 0.70264,0.283272 0.71481,0.270524 0.71582,0.250964 0.70265,0.212571 0.71481,0.21887 0.70264,0.206062 0.71582,0.193062 0.70265,0.193062 0.71481,0.21257 0.71481,0.218866 0.70264,0.238166 0.71582,0.289775 0.70265,0.276768 0.71481,0.270318 0.71582,0.360683 0.70163,0.424731 0.71582,0.502184 0.70265,0.553745 0.71481,0.624503 0.70264,0.592185 0.71481,0.70191 0.71582,0.811056 0.70265,0.978684 0.71481,1.171578 0.70264,1.37131 0.71582,1.648125 0.71481,1.9572 0.70265,2.182564 0.71481,2.420585 0.70264,2.6654 0.71582,2.77476 0.71481,2.890357 0.70265,3.019482 0.71582,3.045493 0.70264,3.128732 0.71481,3.109483 0.70265,3.006476 0.71481,2.755719 0.71581,2.555946 0.70264,2.413921 0.71481,2.279177 0.70265,2.118418 0.71481,1.87963 0.71583,1.71264 0.70264,1.76362 0.71481,1.86715 0.70265,1.8994 0.71481,1.89264 0.70264,1.98316 0.71582,2.16264 0.71481,2.25993 0.70265,2.13091 0.71581,2.16316 0.70264,2.09241 0.71481,2.0149 0.71481,1.90564 0.70265,1.87391 0.71583,1.87339 0.70264,1.69963 0.71481,1.53211 0.70265,1.2491 0.71582,1.04308 0.71481,0.95257 0.70264,1.08158 0.71481,1.08782 0.70265,0.88233 0.71581,0.89482 0.71481,1.04308 0.70264,1.19708 0.71481,1.1591 0.70265,1.21684 0.71583,1.19708 0.70264,1.2236 0.71481,1.04933 0.71481,1.05609 0.70265,1.17783 0.71582,1.06857 0.70264,0.84332 0.71481,0.63729 0.71582,0.57955 0.70264,0.63105 0.71481,0.84332 0.70264,0.86256 0.71481,0.57954 0.71584,0.41204 0.70264,0.36729 0.71481,0.39902 0.70264,0.46978 0.71583,0.35428 0.70264,0.32828 0.71481,0.30902 0.71481,0.0708 0.70264,0.007 0.71582,-0.0453 0.70164,-0.0323 0.71581,-0.19977 0.71481,-0.43753 0.70264,-0.49579 0.71584,-0.37353 0.70264,-0.21226 0.71481,-0.0968 0.70264,-0.30903 0.71481,-0.50203 0.71583,-0.51504 0.70264,-0.34752 0.71481,-0.47654 0.70264,-0.74655 0.71582,-0.85007 0.71482,-1.01083 0.70264,-1.21685 0.71481,-1.21008 0.70366,-1.54511 0.71481,-1.50038 0.70264,-1.5576 0.71481,-1.80316 0.71582,-1.76362 0.70265,-1.71263 0.71481,-1.74489 0.70264,-1.67362 0.71481,-1.68038 0.71582,-1.75738 0.70163,-1.79015 0.71583,-1.53835 0.70264,-1.66738 0.71481,-1.82864 0.71582,-1.91865 0.70265,-2.02114 0.71481,-2.07316 0.70264,-2.04716 0.71481,-2.18917 0.70366,-1.99565 0.71481,-1.91865 0.71481,-1.95715 0.70264,-1.9379 0.71582,-1.98264 0.70265,-2.04715 0.71481,-2.10541 0.71582,-2.03415 0.70264,-2.00865 0.71481,-1.963908 0.70265,-1.828129 0.71481,-1.667894 0.70264,-1.628355 0.71582,-1.687144 0.71481,-1.692865 0.70265,-1.777145 0.71481,-1.764139 0.70264,-1.692866 0.71481,-1.558123 0.71582,-1.42286 0.70265,-1.371357 0.71481,-1.268348 0.70264,-1.306847 0.71582,-1.396848 0.70265,-1.422861 0.71481,-1.403611 0.71582,-1.42286 0.70264,-1.39045 0.71481,-1.352003 0.70265,-1.255291 0.71481,-1.191041 0.71582,-1.178289 0.70264,-1.075027 0.71481,-1.107334 0.70265,-1.120132 0.71582,-1.030135 0.70264,-0.914273 0.71481,-0.798253 0.71481,-0.766108 0.70265,-0.663151 0.71481,-0.605145 0.70264,-0.585896 0.71582,-0.547294 0.71481,-0.540744 0.70265,-0.495687 0.71582,-0.502137 0.70264,-0.495842 0.71481,-0.508484 0.71481,-0.527941 0.70265,-0.50864 0.71581,-0.476385 0.70264,-0.521438 0.71481,-0.579388 0.70265,-0.573051 0.71583,-0.469882 0.71481,-0.405575 0.70264,-0.405632 0.71481,-0.360528 0.70265,-0.32193 0.71582,-0.315579 0.71481,-0.296069 0.70264,-0.308914 0.71582,-0.276982 0.70164,-0.263965 0.71581,-0.251022 0.70264,-0.218866 0.71481,-0.206015 0.71481,-0.212415 0.70265,-0.193218 0.71583,-0.212362 0.70264,-0.238217 0.71481,-0.206015 0.71583,-0.180264 0.70264,-0.186768 0.71481,-0.173759 0.70264,-0.116013 0.71481,-0.11586 0.70265,-0.122361 0.71581,-0.141608 0.71481,-0.135159 0.70264,-0.12231 0.71584,-0.135159 0.70264,-0.128861 0.71481,-0.103008 0.71481,-0.07076 0.70264,-0.07091 0.71583,-0.0514 0.70264,-0.0451 0.71481,-0.03859 0.71581,-0.05795 0.70164,-0.0579 0.71582,-0.07091 0.70264,-0.06425 0.71481,-0.03231 0.70264,-0.03859 0.71481,-0.03859 0.71584,-0.0451 0.70264,-0.05145 0.71481,-0.0451 0.70264,-0.0514 0.71583,-0.0579 0.71481,-0.05166 0.70264,-0.0514 0.71481,-0.05161 0.70264,-0.03211 0.71582,-0.03231 0.70264,-0.0256 0.71481,-0.02587 0.71583,-0.03211 0.70265,-0.01932 0.71481,-0.02579 0.70264,-0.02579 0.71481,-0.01932 0.71582,-0.0128 0.70265,-0.01299 0.71481,-0.0063 h 0.70264 0.71481 0.70264 l 0.71582,-0.0065 h 0.71481 0.70265 0.71481 0.70264 l 0.71583,-0.0065 h 0.71481 l 0.70264,-0.0063 h 0.71582 l 0.70265,-0.0065 0.71481,-0.01284 0.70264,-0.0065 0.71481,-0.0065 h 0.71582 l 0.70265,-0.0063 h 0.71481 0.70264 0.71582 0.71481 0.70265 0.71481 l 0.70264,0.0063 h 0.71582 0.71481 l 0.70265,0.0065 h 0.71481"
       style="fill:none;stroke:#ffe400;stroke-width:0.62750465;stroke-linecap:butt;stroke-linejoin:round;stroke-miterlimit:10;stroke-dasharray:none;stroke-opacity:1"
       id="path10356"
       inkscape:connector-curvature="0" /><text
       y="364.67053"
       x="223.81113"
       id="text13109"
       style="font-variant:normal;font-weight:normal;font-size:13.33199883px;font-family:Helvetica;-inkscape-font-specification:Helvetica;writing-mode:lr-tb;display:inline;fill:#000000;fill-opacity:1;fill-rule:nonzero;stroke:none;stroke-width:1.33333325"><tspan
         style="stroke-width:1.33333325"
         id="tspan13107"
         sodipodi:role="line"
         y="364.67053"
         x="223.81113 233.43683 240.84943 244.55571 254.18141 261.59402 266.03357 272.69958 276.40588 283.81845 291.23105 295.67059 302.33661 309.74921 317.1618 323.82779 331.24039 337.90637 341.61267 346.05225 353.46481 360.87741 371.98297 379.39557 386.80817 394.22076 401.63333 409.04593">Network purchases (demeaned)</tspan></text>
</g><g
     inkscape:groupmode="layer"
     id="layer4"
     inkscape:label="network sales"
     style="display:none"><path
       transform="matrix(1.3333333,0,0,-1.3333333,0,384)"
       inkscape:connector-curvature="0"
       id="path8476"
       style="fill:none;stroke:#7577e3;stroke-width:0.63540179;stroke-linecap:butt;stroke-linejoin:round;stroke-miterlimit:10;stroke-dasharray:none;stroke-opacity:1"
       d="m 128.76763,42.822095 h 0.71373 l 0.71473,0.0067 0.70158,0.01314 0.71372,0.0067 0.71373,0.01987 0.71473,0.02628 0.71373,0.01982 0.71473,0.0265 0.71373,0.03964 0.70157,0.05946 0.71373,0.05305 0.71473,0.07928 0.71373,0.0726 0.71473,0.112509 0.71373,0.13874 0.71372,0.132328 0.70157,0.151935 0.71474,0.178647 0.71373,0.191735 0.71372,0.198253 0.71474,0.20493 0.71372,0.218073 0.71474,0.191788 0.70157,0.244571 0.71373,0.24457 0.71372,0.231429 0.71474,0.22475 0.71372,0.198467 0.71474,0.18511 0.71372,0.171969 0.70158,0.211395 0.71372,0.271068 0.71474,0.310762 0.71372,0.30403 0.71372,0.290888 0.71474,0.337259 0.70158,0.376846 0.71372,0.495872 0.71372,0.548601 0.71474,0.608328 0.71372,0.720569 0.71373,0.833078 0.71473,1.004833 0.70158,1.077595 0.71372,1.282579 0.71373,1.474154 0.71473,1.481046 0.71373,1.527149 0.71473,1.54697 0.71373,1.586609 0.70157,1.718938 0.71373,1.765043 0.71473,1.73224 0.71373,1.804735 0.71473,1.884176 0.71373,1.943475 0.71372,1.91094 0.70158,1.903996 0.71473,1.877283 0.71373,1.844696 0.71473,1.791273 0.71373,1.745863 0.71372,1.837751 0.71474,2.02954 0.70157,2.076017 0.71373,2.055717 0.71372,1.97665 0.71474,1.811574 0.71372,1.698851 0.71474,1.864462 0.71372,1.97665 0.70158,2.04984 0.71372,2.18126 0.71474,2.13532 0.71372,2.05625 0.71474,1.93712 0.71372,1.92376 0.71373,1.96383 0.70157,1.89064 0.71474,1.86446 0.71372,1.75815 0.71373,1.77204 0.71473,1.75174 0.71373,1.67268 0.70157,1.59307 0.71372,1.42159 0.71474,1.1705 0.71373,1.09036 0.71372,1.17691 0.71474,1.27574 0.71372,1.56048 0.70157,1.53378 0.71373,1.41464 0.71474,1.48783 0.71372,1.41464 0.71474,1.34198 0.71372,1.3484 0.71372,1.29604 0.70158,1.38152 0.71474,1.38205 0.71372,1.27574 0.71474,1.1502 0.71372,1.11067 0.71372,0.95894 0.71474,0.83927 0.70158,0.87935 0.71372,0.82004 0.71474,0.85957 0.71372,0.92529 0.71372,1.05137 0.71474,0.89216 0.71372,0.84622 0.70158,0.84622 0.71372,0.68114 0.71474,0.46265 0.71372,0.35045 0.71474,0.45623 0.71372,0.43593 0.71373,0.43006 0.70157,0.27085 0.71474,0.20515 0.71372,0.0796 0.71474,-0.0598 0.71372,-0.0994 0.71373,-0.0791 0.71473,-0.18538 0.70158,-0.13195 0.71372,-0.0924 0.71373,-0.0529 0.71473,-0.0994 0.71373,-0.2778 0.71473,-0.54171 0.71373,-0.71426 0.70157,-0.94559 0.71373,-0.95841 0.71372,-0.83981 0.71474,-1.00488 0.71372,-1.2095 0.71474,-1.42158 0.70056,-1.44136 0.71474,-1.65237 0.71372,-1.46806 0.71474,-1.428 0.71372,-1.61284 0.71373,-1.6465 0.71473,-1.85751 0.70158,-1.95048 0.71372,-1.92323 0.71474,-1.91735 0.71372,-2.14867 0.71373,-2.30093 0.71473,-2.28062 0.71373,-2.26087 0.70157,-2.11555 0.71372,-2.13585 0.71474,-2.25445 0.71373,-2.31375 0.71473,-2.45906 0.71373,-2.47241 0.71372,-2.61132 0.70157,-2.47936 0.71474,-2.5253 0.71373,-2.42648 0.71473,-2.26086 0.71373,-2.39976 0.71372,-2.453186 0.71474,-2.373049 0.70157,-2.293983 0.71373,-2.379994 0.71473,-2.466005 0.71373,-2.333517 0.71372,-2.19515 0.71474,-2.062662 0.71372,-1.950473 0.70158,-1.844162 0.71372,-1.633141 0.71474,-1.546595 0.71372,-1.461653 0.71474,-1.440818 0.71372,-1.520632 0.71372,-1.500812 0.70158,-1.328737 0.71474,-1.209924 0.71372,-1.143572 0.71372,-1.077649 0.71474,-1.005047 0.71372,-0.971817 0.70158,-1.004833 0.71372,-1.057775 0.71474,-1.017975 0.71372,-1.005047 0.71373,-0.978282 0.71473,-0.886074 0.71373,-0.799902 0.70157,-0.720569 0.71474,-0.608328 0.71372,-0.555279 0.71373,-0.528834 0.71473,-0.508961 0.71373,-0.502496 0.71372,-0.495872 0.70158,-0.495819 0.71473,-0.456179 0.71373,-0.376899 0.71473,-0.330528 0.71373,-0.370222 0.71372,-0.350348 0.71474,-0.310761 0.70157,-0.30403 0.71373,-0.31744 0.71473,-0.357026 0.71373,-0.323903 0.71372,-0.290888 0.71474,-0.271069 0.71372,-0.231214 0.70158,-0.238107 0.71473,-0.251248 0.71373,-0.237946 0.71372,-0.198413 0.71474,-0.185111 0.71372,-0.211394 0.71373,-0.191789 0.70157,-0.158613 0.71474,-0.145471 0.71372,-0.178593 0.71474,-0.171755 0.71372,-0.158826 0.71373,-0.171755 0.71473,-0.158773 0.70158,-0.165291 0.71372,-0.151935 0.71373,-0.112455 0.71473,-0.05951 0.71373,-0.08596 0.71372,-0.112455 0.70157,-0.125438 0.71474,-0.119133 0.71373,-0.09915 0.71372,-0.08596 0.71474,-0.09248 0.71372,-0.06614 0.71372,-0.06614 0.70158,-0.03302 0.71474,-0.03964 0.71372,-0.053 0.71474,-0.03964 0.71372,-0.0726 0.71372,-0.08601 0.71474,-0.05946 0.70158,-0.06614 0.71372,-0.05305 0.71474,-0.02628 0.71372,-0.0265 0.71372,-0.01982 0.71474,-0.0265 0.71372,-0.03296 0.70158,-0.04632 0.71474,-0.05284 0.71372,-0.04632 0.71372,-0.04632 0.71474,-0.03964 0.71372,-0.0265 0.71373,-0.02634 0.70157,-0.0265 0.71474,-0.01982 0.71372,-0.01982 0.71474,-0.01982 0.71372,-0.0265 0.71373,-0.01982 0.71473,-0.01982 0.70158,-0.01314 0.71372,-0.0067 0.71474,0.0067 0.71372,0.01314 0.71373,0.0067 h 0.71473 l 0.71373,0.0065 h 0.70157 l 0.71373,0.0067 0.71473,0.0067 h 0.71373 0.71372 l 0.71474,-0.0067 0.71372,-0.01314 h 0.70158 l 0.71372,-0.0067 0.71474,-0.0067 0.71372,-0.01314 0.71373,-0.01314 0.71473,-0.01335 0.70158,-0.0065 0.71372,-0.0067 0.71474,-0.0067 0.71372,-0.0065 0.71373,-0.0067 h 0.71473 l 0.71373,-0.0067 h 0.70157 l 0.71474,0.0067" /><g
       style="display:inline"
       transform="matrix(1.3333333,0,0,-1.3333333,8.5216169,385.30243)"
       id="g12565"><text
         id="text12569"
         style="font-variant:normal;font-weight:normal;font-size:7.99424982px;font-family:Helvetica;-inkscape-font-specification:Helvetica;writing-mode:lr-tb;fill:#000000;fill-opacity:1;fill-rule:nonzero;stroke:none"
         transform="matrix(1,0,0,-1,373.828,25.4801)"><tspan
           id="tspan12567"
           sodipodi:role="line"
           y="0"
           x="0 4.4448032">10</tspan></text>
<text
         id="text12573"
         style="font-variant:normal;font-weight:normal;font-size:4.65299988px;font-family:Helvetica;-inkscape-font-specification:Helvetica;writing-mode:lr-tb;fill:#000000;fill-opacity:1;fill-rule:nonzero;stroke:none"
         transform="matrix(1,0,0,-1,382.71706,29.66291)"><tspan
           id="tspan12571"
           y="0"
           x="0">4</tspan></text>
<text
         id="text12577"
         style="font-variant:normal;font-weight:normal;font-size:9.9989996px;font-family:Helvetica;-inkscape-font-specification:Helvetica;writing-mode:lr-tb;fill:#000000;fill-opacity:1;fill-rule:nonzero;stroke:none"
         transform="matrix(1,0,0,-1,157.09006,15.07271)"><tspan
           id="tspan12575"
           sodipodi:role="line"
           y="0"
           x="0 7.2192779 12.778722 15.558444 22.777721 28.337166 31.666834 36.666332 39.446056 44.445557 50.004997 52.224777 57.784222 62.783722 65.563446 68.893112 74.452553 80.012001 88.341164 93.900612 99.460052 105.0195 110.57894 116.13838">Network sales (demeaned)</tspan></text>
</g></g><g
     inkscape:groupmode="layer"
     id="layer2"
     inkscape:label="number of suppliers"
     style="display:none"><path
       transform="matrix(1.3333333,0,0,-1.3333333,0,384)"
       inkscape:connector-curvature="0"
       id="path11419"
       style="fill:none;stroke:#737777;stroke-width:0.77282995;stroke-linecap:butt;stroke-linejoin:round;stroke-miterlimit:10;stroke-dasharray:none;stroke-opacity:1"
       d="m 156.03602,44.160283 0.52,0.01002 0.532,0.0097 0.532,0.01998 0.52,0.01968 0.532,0.01002 0.532,0.0297 0.52,0.0097 h 0.532 0.52 0.532 l 0.532,0.03966 0.52,0.287235 0.532,0.336597 0.532,0.296914 0.52,0.247553 0.532,0.198102 0.532,0.158496 0.52,0.168103 0.532,0.128811 0.532,0.198107 0.52,0.168176 0.532,0.08937 0.52,0.03936 0.532,0.128811 0.532,0.425653 0.52,0.306912 0.532,0.247552 0.532,0.119054 0.52,0.188098 0.532,0.366367 0.532,0.53438 0.52,0.4951 0.53199,0.524701 0.53201,0.524778 0.52,0.96043 0.53199,1.109169 0.52001,0.9998 0.532,1.039801 0.53199,1.029479 0.52001,0.851697 0.532,1.029798 0.53199,1.366082 0.52001,1.000113 0.532,1.059483 0.53199,0.950436 0.52001,1.099247 0.532,1.940538 0.53199,2.277144 0.52001,2.713123 0.532,2.890896 0.519,2.198087 0.533,1.514904 0.532,1.3764 0.519,1.128531 0.533,0.881382 0.532,0.574147 0.51999,0.920754 0.53201,0.6535 0.532,1.118858 0.51999,4.178317 0.53201,8.723029 0.532,13.069512 0.51999,11.35651 0.53201,12.8119 0.519,11.44612 0.53299,9.3859 0.53201,9.82194 0.519,10.18838 0.53299,8.96024 0.53201,7.41606 0.519,8.02013 0.53299,7.79211 0.53201,7.28724 0.52,4.20849 0.53199,-0.80249 0.53201,-5.52464 0.52,-7.52488 0.53199,-3.67322 0.519,-0.38645 0.53301,2.15865 0.53199,3.33639 0.519,1.93142 0.53301,-1.50577 0.53199,-0.91051 0.519,1.64339 0.53301,0.74329 0.53199,1.50418 0.52001,1.52497 0.532,1.21774 0.519,1.82182 0.533,2.21785 0.532,-0.46486 0.519,-2.82192 0.533,-4.3469 0.532,-4.63334 0.519,-3.89165 0.533,-3.54441 0.532,-0.42566 0.519,0.8713 0.533,-1.95062 0.532,-0.21762 0.519,1.32655 0.533,2.70271 0.519,3.26758 0.532,5.71347 0.53199,2.5739 0.52001,0.8617 0.532,0.53446 0.53199,1.37616 0.52001,0.37604 0.532,-0.52486 0.53199,-1.91061 0.52001,-3.65324 0.532,-4.17888 0.53199,-2.35628 0.52001,-0.97051 0.532,0.0496 0.51999,-0.62327 0.53201,0.40564 0.532,-2.07944 0.51999,-1.89062 0.53201,-1.07932 0.532,-2.15865 0.51999,-2.95075 0.53201,-2.27706 0.532,-1.07933 0.51999,-0.0392 0.53201,1.58418 0.532,0.24723 0.51999,-2.43548 0.53201,-4.44612 0.52,-4.23729 0.53199,-3.81244 0.53201,-2.76192 0.52,-1.93063 0.532,-1.733 0.532,-2.64351 0.52,-3.40599 0.532,-3.15877 0.532,-2.65311 0.52,-3.53481 0.532,-3.17797 0.532,-3.22837 0.52,-3.27718 0.532,-2.23706 0.52,-1.49537 0.532,-2.35628 0.532,-2.5651 0.52,-2.68271 0.532,-2.5939 0.532,-2.22826 0.52,-1.83141 0.532,-1.89142 0.532,-2.08904 0.52,-2.47549 0.532,-1.98983 0.532,-2.02984 0.52,-2.27706 0.532,-2.22746 0.52,-2.12905 0.532,-2.36667 0.532,-2.5939 0.52,-2.475493 0.532,-2.336263 0.532,-2.129047 0.52,-2.118654 0.532,-2.197855 0.532,-2.079602 0.52,-1.752355 0.532,-1.821812 0.532,-1.584184 0.52,-1.485228 0.532,-1.415757 0.519,-1.386401 0.533,-1.356397 0.532,-1.237672 0.519,-1.217661 0.533,-1.27734 0.532,-1.237672 0.519,-1.188218 0.532,-1.059163 0.533,-1.059563 0.519,-0.900985 0.532,-0.980114 0.533,-0.85169 0.519,-0.831625 0.532,-0.831697 0.52,-0.702873 0.532,-0.70321 0.532,-0.732565 0.52,-0.802005 0.532,-0.801937 0.533,-0.762569 0.519,-0.673278 0.532,-0.683203 0.533,-0.692877 0.519,-0.703203 0.532,-0.643515 0.52,-0.603832 0.532,-0.604066 0.532,-0.58415 0.52,-0.613829 0.532,-0.505103 0.532,-0.435651 0.52,-0.425647 0.532,-0.385964 0.533,-0.416047 0.519,-0.405971 0.532,-0.405965 0.533,-0.366283 0.519,-0.3266 0.532,-0.227864 0.52,-0.217868 0.532,-0.227786 0.532,-0.207864 0.52,-0.178101 0.532,-0.188182 0.532,-0.178179 0.52,-0.1981 0.532,-0.188182 0.53299,-0.178101 0.519,-0.178185 0.53201,-0.1781 0.53299,-0.188182 0.519,-0.168416 0.53201,-0.188182 0.52,-0.158418 0.53199,-0.188182 0.53201,-0.138418 0.52,-0.138814 0.53199,-0.138419 0.53201,-0.128816 0.52,-0.158418 0.53199,-0.158497 0.53201,-0.138418 0.52,-0.138736 0.53199,-0.128811 0.53201,-0.128739 0.52,-0.09881 0.53199,-0.109057 0.52001,-0.08905 0.532,-0.05934 0.53199,-0.05947 0.52001,-0.0297 h 0.532 0.53199 l 0.52001,-0.01999 0.532,-0.0297 0.53199,-0.02971 0.52001,-0.04938 0.532,-0.05935 0.53199,-0.04938 0.52001,-0.04969 0.532,-0.07912 0.51999,-0.08905 0.53201,-0.05971 0.532,-0.06905 0.51999,-0.05946 0.53201,-0.04969 0.532,-0.04939 0.51999,-0.03966 0.53201,-0.01968 0.532,-0.01999 0.51999,-0.0097 h 0.53201 l 0.532,-0.01002 0.51999,-0.01002 0.53201,-0.0097 h 0.52 0.53199 0.53201 0.52 l 0.53199,-0.01002 0.53201,-0.01002 0.52,-0.0097 0.53199,-0.01003 0.53201,-0.01968 0.52,-0.01998 0.53199,-0.0098 0.53201,-0.01998 0.52,-0.01968 0.53199,-0.01002 h 0.52001 0.532 0.53199 l 0.52001,0.01002 0.532,0.01002 0.53199,0.0097 0.52001,0.01002 0.532,0.01003 0.53199,0.0098 h 0.52001 l 0.532,0.01002 h 0.53199 0.52001 l 0.532,-0.01002 0.51999,-0.0098 h 0.53201 l 0.532,-0.01003" /><g
       transform="matrix(1.3333333,0,0,-1.3333333,-6.5712477,382.91256)"
       id="g13456"><text
         id="text13460"
         style="font-variant:normal;font-weight:normal;font-size:7.99424982px;font-family:Helvetica;-inkscape-font-specification:Helvetica;writing-mode:lr-tb;fill:#000000;fill-opacity:1;fill-rule:nonzero;stroke:none"
         transform="matrix(1,0,0,-1,373.841,25.4801)"><tspan
           id="tspan13458"
           sodipodi:role="line"
           y="0"
           x="0 4.4448032">10</tspan></text>
<text
         id="text13464"
         style="font-variant:normal;font-weight:normal;font-size:4.65299988px;font-family:Helvetica;-inkscape-font-specification:Helvetica;writing-mode:lr-tb;fill:#000000;fill-opacity:1;fill-rule:nonzero;stroke:none"
         transform="matrix(1,0,0,-1,382.73006,29.66291)"><tspan
           id="tspan13462"
           y="0"
           x="0">4</tspan></text>
<text
         id="text13468"
         style="font-variant:normal;font-weight:normal;font-size:9.9989996px;font-family:Helvetica;-inkscape-font-specification:Helvetica;writing-mode:lr-tb;fill:#000000;fill-opacity:1;fill-rule:nonzero;stroke:none"
         transform="matrix(1,0,0,-1,141.42606,15.07271)"><tspan
           id="tspan13466"
           sodipodi:role="line"
           y="0"
           x="0 7.2192779 12.778722 21.107889 26.667334 32.226776 35.556442 38.336166 43.895611 46.675331 49.455055 54.454556 60.013996 65.573441 71.132889 73.352661 75.572441 81.131889 84.461555 89.461052 92.240776 95.570442 101.12988 106.68933 115.01849 120.57794 126.13738 131.69682 137.25627 142.81572">Number of suppliers (demeaned)</tspan></text>
</g></g><g
     inkscape:groupmode="layer"
     id="layer1"
     inkscape:label="number of customers"
     style="display:none"><path
       transform="matrix(1.3333333,0,0,-1.3333333,0,384)"
       inkscape:connector-curvature="0"
       id="path5767"
       style="fill:none;stroke:#ef7733;stroke-width:0.86400002;stroke-linecap:butt;stroke-linejoin:round;stroke-miterlimit:10;stroke-dasharray:none;stroke-opacity:1"
       d="m 155.69,44.09607 h 1.188 l 0.606,0.0246 0.594,0.0372 0.594,0.0246 0.594,0.025 0.594,0.0246 0.594,0.0246 0.607,0.0371 0.594,0.0371 0.594,0.0867 0.594,0.0867 0.594,0.0868 0.606,0.6062 0.594,0.6684 0.594,0.5691 0.594,0.4578 0.594,0.359 0.606,0.2969 0.595,0.8293 0.593,0.8043 0.594,0.8785 0.595,0.7922 0.593,0.6929 0.607,0.9778 0.594,0.7422 0.594,0.4703 0.594,0.1238 0.594,-0.2226 0.606,-0.0622 0.594,-0.1113 0.594,-0.3836 0.594,-0.5937 0.594,-0.7426 0.606,-0.6559 0.595,0.0246 0.594,0.8043 0.593,0.9903 0.595,1.0765 0.593,2.809 0.607,4.2199 0.594,3.8118 0.594,3.5761 0.594,3.3536 0.594,2.6609 0.606,2.4996 0.594,2.6977 0.594,2.6359 0.594,2.8586 0.594,1.6707 0.607,2.623399 0.594,2.2028 0.594,2.6976 0.593,2.5 0.595,2.2274 0.594,2.920601 0.606,4.368 0.594,6.522 0.594,6.423 0.594,5.271 0.594,4.529 0.606,6.436 0.595,6.422 0.593,11.162 0.594,13.13 0.594,11.62 0.607,13.118 0.594,11.608 0.594,9.207 0.594,13.736 0.594,10.568 0.594,6.943 0.606,7.523 0.594,7.401 0.594,2.314 0.594,1.869 0.594,-2.785 0.606,-3.056 0.595,-2.216 0.593,0.297 0.594,0.768 0.595,-2.042 0.606,-3.057 0.594,-5.878 0.594,-7.14 0.594,-2.55 0.594,-4.925 0.594,-6.299 0.606,-4.578 0.594,-5.074 0.594,-5.94 0.594,-3.886 0.594,-6.398 0.607,-5.334 0.594,-1.645 0.594,-1.386 0.593,2.685 0.595,1.337 0.606,1.225 0.594,1.175 0.594,1.857 0.594,1.138 0.594,0.668 0.594,-0.532 0.606,-2.661 0.595,-2.277 0.593,-0.544 0.594,-2.648 0.594,-3.279 0.607,-3.441 0.594,-4.158 0.594,-4.641 0.594,-1.621 0.594,-2.71 0.606,-2.747 0.594,-1.658 0.594,-2.76 0.594,-2.574 0.594,-2.413 0.594,-3.217 0.606,-4.022 0.595,-2.624 0.593,-2.661 0.594,-3.811 0.595,-3.193 0.606,-3.885 0.594,-3.8 0.594,-2.524 0.594,-2.116 0.594,-1.943 0.606,-1.931 0.594,-2.041 0.594,-2.735 0.594,-2.203 0.594,-2.859 0.594,-2.71 0.606,-2.042 0.595,-2.252 0.594,-1.869 0.593,-1.782 0.595,-1.7938 0.606,-1.794501 0.594,-1.4231 0.594,-1.5098 0.594,-1.7945 0.594,-1.5594 0.606,-1.7445 0.594,-1.670699 0.595,-1.5594 0.593,-1.6457 0.594,-1.9429 0.594,-1.8438 0.607,-1.782 0.594,-1.9059 0.594,-1.5222 0.594,-1.4602 0.594,-1.4477 0.606,-1.1882 0.594,-1.0766 0.594,-0.8664 0.594,-0.7301 0.594,-0.7301 0.606,-0.8168 0.594,-0.7918 0.595,-0.6558 0.593,-0.6188 0.594,-0.6929 0.595,-0.7797 0.606,-0.8664 0.594,-0.8539 0.594,-0.8786 0.594,-0.8785 0.594,-0.916 0.606,-0.7793 0.594,-0.7797 0.594,-0.6683 0.594,-0.5571 0.594,-0.5195 0.607,-0.5816 0.593,-0.5446 0.595,-0.4453 0.594,-0.4086 0.594,-0.3836 0.594,-0.4207 0.606,-0.359 0.594,-0.396 0.594,-0.4082 0.594,-0.4704 0.594,-0.4703 0.606,-0.4207 0.594,-0.4453 0.594,-0.359 0.594,-0.334 0.594,-0.3714 0.607,-0.2844 0.594,-0.186 0.594,-0.1605 0.594,-0.223 0.594,-0.1856 0.594,-0.1484 0.606,-0.0496 0.594,-0.0122 0.594,-0.0621 0.594,-0.0617 0.594,-0.0742 0.606,-0.1238 0.594,-0.2106 0.595,-0.2472 0.593,-0.2602 0.595,-0.2969 0.606,-0.2351 0.594,-0.2102 0.594,-0.1609 0.594,-0.2106 0.594,-0.2597 0.594,-0.2598 0.606,-0.1734 0.594,-0.0989 0.594,-0.1238 0.594,-0.1113 0.594,-0.0992 0.607,-0.0989 0.593,-0.0992 0.595,-0.0742 0.594,-0.0617 0.594,-0.0496 0.606,-0.0246 0.594,-0.0618 0.594,-0.0496 0.594,-0.0621 0.594,-0.0742 0.594,-0.0742 0.606,-0.0617 0.594,-0.0621 0.594,-0.0743 0.594,-0.0863 0.595,-0.0867 0.606,-0.1113 0.594,-0.0993 0.594,-0.0742 0.594,-0.0371 0.594,-0.0371 0.606,-0.0125 0.594,-0.0121 0.594,-0.0125 h 0.594 l 0.594,-0.0125 0.594,0.0371 0.606,0.0496 0.594,0.0371 0.595,0.0125 0.593,0.0246 0.595,0.025 0.606,0.0121 h 0.594 l 0.594,-0.0121 0.594,-0.0125 0.594,-0.0125 0.606,-0.0246 0.594,-0.0371 0.594,-0.0496 0.594,-0.0371 0.594,-0.0617 0.594,-0.025 0.607,-0.0121 h 0.594 l 0.594,-0.0125 0.594,0.0125 0.594,0.0246 0.606,0.0246 0.594,0.0125 h 0.594 0.594 l 0.594,-0.0125 0.606,-0.0121 0.594,-0.025 0.594,-0.0246 0.594,-0.0371 0.594,-0.0247 0.595,-0.0371 0.606,-0.025 0.594,-0.0246 0.594,-0.0125 0.594,-0.0125 h 0.594 l 0.606,0.0125 0.594,0.0125 h 0.594 l 0.594,0.0121 0.594,0.0125 0.607,0.0125 0.593,0.0125 0.595,0.0246 h 0.594 l 0.593,0.0125 h 0.595 0.606 l 0.594,-0.0125 h 0.594" /><g
       id="g5923"
       transform="matrix(1.3333333,0,0,-1.3333333,3.4191758e-6,383.18644)"><text
         id="text5927"
         style="font-variant:normal;font-weight:normal;font-size:7.99424982px;font-family:Helvetica;-inkscape-font-specification:Helvetica;writing-mode:lr-tb;fill:#000000;fill-opacity:1;fill-rule:nonzero;stroke:none"
         transform="matrix(1,0,0,-1,373.841,25.4801)"><tspan
           id="tspan5925"
           sodipodi:role="line"
           y="0"
           x="0 4.4448032">10</tspan></text>
<text
         id="text5931"
         style="font-variant:normal;font-weight:normal;font-size:4.65299988px;font-family:Helvetica;-inkscape-font-specification:Helvetica;writing-mode:lr-tb;fill:#000000;fill-opacity:1;fill-rule:nonzero;stroke:none"
         transform="matrix(1,0,0,-1,382.73006,29.66291)"><tspan
           id="tspan5929"
           y="0"
           x="0">4</tspan></text>
<text
         id="text5935"
         style="font-variant:normal;font-weight:normal;font-size:9.9989996px;font-family:Helvetica;-inkscape-font-specification:Helvetica;writing-mode:lr-tb;fill:#000000;fill-opacity:1;fill-rule:nonzero;stroke:none"
         transform="matrix(1,0,0,-1,138.37106,15.07271)"><tspan
           id="tspan5933"
           sodipodi:role="line"
           y="0"
           x="0 7.2192779 12.778722 21.107889 26.667334 32.226776 35.556442 38.336166 43.895611 46.675331 49.455055 54.454556 60.013996 65.013496 67.793221 73.352661 81.681831 87.241272 90.570946 95.570442 98.350166 101.67983 107.23927 112.79872 121.12788 126.68733 132.24678 137.80621 143.36566 148.92511">Number of customers (demeaned)</tspan></text>
</g></g><g
     inkscape:groupmode="layer"
     id="layer3"
     inkscape:label="total sales"
     style="display:inline"><path
       inkscape:connector-curvature="0"
       id="path5959"
       style="fill:none;stroke:#047733;stroke-width:0.77321911;stroke-linecap:butt;stroke-linejoin:round;stroke-miterlimit:10;stroke-dasharray:none;stroke-opacity:1"
       d="m 106.45956,44.041486 h 0.85327 l 0.85427,0.0097 h 2.55082 l 0.85327,-0.0097 h 0.85428 0.85427 0.84227 l 0.85427,0.0197 h 0.85328 l 0.85427,0.01001 h 0.84227 l 0.85427,0.01001 0.85327,0.0197 0.85428,0.01001 0.84227,0.01978 0.85427,0.01001 0.85327,0.01969 0.85428,0.0297 0.85427,0.0297 0.84227,0.0197 0.85327,0.02002 0.85428,0.0197 0.85427,0.01001 0.84227,0.0197 0.85427,0.0297 0.85327,0.03971 0.85428,0.0695 0.84227,0.0297 0.85427,0.03939 0.85427,0.05973 0.85428,0.05941 0.85327,0.05941 0.84227,0.09888 0.85427,0.14884 0.85428,0.108807 0.85427,0.0695 0.84127,0.0297 0.85427,0.03971 0.85427,0.0691 0.85428,0.06942 0.84127,0.118895 0.85427,0.119136 0.85427,0.08911 0.85428,0.158607 0.85427,0.257327 0.84127,0.317135 0.85427,0.366614 0.85428,0.33683 0.85427,0.287351 0.84127,0.326822 0.85427,0.287431 0.85427,0.307126 0.85428,0.38655 0.84127,0.455726 0.85427,0.376542 0.85427,0.465654 0.85428,0.554845 0.85427,0.554846 0.84127,0.554765 0.85427,0.564853 0.85428,0.624261 0.85427,0.703365 0.84227,0.733068 0.85327,0.703685 0.85428,0.812252 0.85427,0.981107 0.84227,0.921379 0.85427,0.97078 0.85327,1.080227 0.85428,1.277905 0.85427,1.278226 0.84227,1.327625 0.85427,1.387034 0.85328,1.59536 0.85427,1.684152 0.84227,1.773583 0.85427,1.773583 0.85428,1.813055 0.85427,1.872784 0.85327,1.753567 0.84227,1.54564 0.85427,1.565577 0.85428,1.575344 0.85427,1.74388 0.84127,1.93187 0.85427,2.308733 0.85428,2.447244 0.85427,2.833474 0.84127,2.95277 0.85427,3.2402 0.85428,3.814262 0.85427,4.59729 0.85427,4.76542 0.84127,4.76543 0.85427,4.63732 0.85428,4.43876 0.85427,4.32027 0.84127,4.09208 0.85427,4.02243 0.85428,3.82387 0.85427,3.33948 0.84127,3.29945 0.85427,3.54684 0.85428,3.7358 0.85427,3.89353 0.85427,4.39873 0.84127,4.94396 0.85427,4.54765 0.85428,4.28104 0.85427,3.62611 0.84227,3.28904 0.85327,2.73499 0.85428,2.64533 0.85427,2.41714 0.84227,1.81345 0.85427,1.16894 0.85328,0.44596 0.85427,0.22818 0.85427,0.47558 0.84227,0.55485 0.85428,0.38591 0.85327,0.10889 0.85427,-0.71258 0.84227,-1.31785 0.85427,-0.98079 0.85428,-0.78303 0.85427,-1.48599 0.84127,-1.95197 0.85427,-2.34828 0.85428,-2.66534 0.85427,-2.992 0.85427,-3.05205 0.84127,-3.01202 0.85428,-3.01202 0.85427,-3.58608 0.85427,-3.71578 0.84127,-3.72539 0.85427,-3.44836 0.85428,-3.55646 0.85427,-3.53724 0.84127,-3.55725 0.85427,-3.16014 0.85428,-3.19056 0.85427,-3.3691 0.85427,-3.31867 0.84127,-3.4876 0.85428,-3.51722 0.85427,-3.52763 0.85427,-3.6165 0.84127,-3.43796 0.85427,-3.25942 0.85428,-3.10169 0.85427,-2.992 0.84127,-2.45717 0.85427,-2.37791 0.85428,-2.42755 0.85427,-2.397919 0.85427,-2.575667 0.84227,-2.427548 0.85328,-2.337876 0.85427,-2.497205 0.85427,-2.447244 0.84227,-2.229309 0.85428,-2.040998 0.85327,-1.872463 0.85427,-1.585272 0.85427,-1.407129 0.84227,-1.397041 0.85428,-1.466137 0.85327,-1.506249 0.85427,-1.436433 0.84227,-1.307929 0.85428,-1.248522 0.85327,-1.30761 0.85427,-1.25853 0.84227,-1.198722 0.85428,-1.079987 0.85327,-1.050202 0.85427,-0.812493 0.85427,-0.802564 0.84227,-0.77278 0.85328,-0.792796 0.85427,-0.792556 0.85427,-0.782788 0.84227,-0.653965 0.85428,-0.643957 0.85427,-0.554845 0.85327,-0.465654 0.84227,-0.525142 0.85428,-0.614252 0.85427,-0.53507 0.85427,-0.534829 0.85327,-0.455966 0.84227,-0.475422 0.85428,-0.406246 0.85427,-0.396238 0.85427,-0.356846 0.84127,-0.426022 0.85428,-0.376542 0.85427,-0.267335 0.85427,-0.28743 0.84127,-0.346839 0.85428,-0.396318 0.85427,-0.445958 0.85427,-0.43595 0.85428,-0.426021 0.84126,-0.297039 0.85428,-0.198319 0.85427,-0.148519 0.85427,-0.158608 0.84127,-0.138511 0.85428,-0.0795 0.85427,-0.0494 0.85427,-0.06942 0.84127,-0.108807 0.85428,-0.198319 0.85427,-0.277423 0.85427,-0.297439 0.85428,-0.267334 0.84126,-0.247719 0.85428,-0.208007 0.85427,-0.168535 0.85427,-0.108888 0.84227,-0.09912 0.85328,-0.0197 0.85427,0.0197 0.85427,0.0297 h 0.84227 l 0.85428,-0.0297 0.85327,-0.0297 0.85427,-0.0494 0.85428,-0.07942 0.84227,-0.08919 0.85427,-0.0791 0.85427,-0.08943 0.85327,-0.118896 0.84227,-0.128823 0.85428,-0.128503 0.85427,-0.0992 0.85427,-0.08911 0.84127,-0.06942 0.85428,-0.0494 0.85427,-0.03971 0.85427,-0.03979 0.85428,0.01001 0.84127,0.01977 0.85427,0.0197 0.85427,0.01001 0.85428,-0.0297 0.84126,-0.01977 0.85428,-0.02002 0.85427,-0.0297 0.85427,-0.0297 0.85428,-0.03939 0.84127,-0.0297 0.85427,-0.03971 0.85427,-0.0297 0.85428,-0.02002 h 0.84127 l 0.85427,-0.0297 0.85427,-0.0297 0.85428,-0.03947 0.84126,-0.0297 0.85428,-0.03971 0.85427,-0.04972 0.85427,-0.0494 0.85428,-0.0297 0.84127,-0.03971 0.85427,-0.03939 0.85427,-0.03979 0.85428,-0.01001 0.84227,-0.0097 h 0.85327 0.85427 l 0.85428,0.0097 0.84226,0.01001 h 0.85428 l 0.85327,0.01001 h 0.85427 0.85428 l 0.84227,-0.01001 0.85427,-0.01001 0.85427,-0.0097 h 0.85328 0.84227 0.85427 l 0.85427,0.0097 h 0.85428 0.84127 0.85427 l 0.85427,0.01001 0.85427,0.01978 h 0.85428 0.84127 l 0.85427,-0.0098 h 0.85427 l 0.85428,-0.02002"
       transform="matrix(1.3333333,0,0,-1.3333333,0,384)" /><text
       style="font-variant:normal;font-weight:normal;font-size:13.33199883px;font-family:Helvetica;-inkscape-font-specification:Helvetica;writing-mode:lr-tb;display:inline;fill:#000000;fill-opacity:1;fill-rule:nonzero;stroke:none;stroke-width:1.33333325"
       id="text12223"
       x="218.70351"
       y="364.63022"><tspan
         x="218.70351 226.84937 234.26195 237.96825 245.38084 248.34055 252.04684 258.71283 266.12543 269.08514 276.49774 283.16373 286.87003 291.3096 298.72217 306.13477 317.24033 324.65292 332.06552 339.47812 346.89072 354.30328"
         y="364.63022"
         sodipodi:role="line"
         id="tspan12221"
         style="stroke-width:1.33333325">Total sales (demeaned)</tspan></text>
</g><g
     id="g5753"
     inkscape:groupmode="layer"
     inkscape:label="base"
     transform="matrix(1.3333333,0,0,-1.3333333,0,384)"><path
       inkscape:connector-curvature="0"
       id="path5765"
       style="fill:none;stroke:#ffffff;stroke-width:0.57600003;stroke-linecap:butt;stroke-linejoin:miter;stroke-miterlimit:10;stroke-dasharray:none;stroke-opacity:1"
       d="m 43.646103,37.68557 v 240.2608 H 385.902 V 37.68557 Z" /><path
       inkscape:connector-curvature="0"
       id="path5769"
       style="fill:none;stroke:#000000;stroke-width:0.57600003;stroke-linecap:butt;stroke-linejoin:miter;stroke-miterlimit:10;stroke-dasharray:none;stroke-opacity:1"
       d="m 43.077303,37.68557 c 0,80.27653 0,160.55307 0,240.8296"
       sodipodi:nodetypes="cc" /><path
       inkscape:connector-curvature="0"
       id="path5771"
       style="fill:none;stroke:#000000;stroke-width:0.57600003;stroke-linecap:butt;stroke-linejoin:miter;stroke-miterlimit:10;stroke-dasharray:none;stroke-opacity:1"
       d="m 43.077303,44.02147 h -3.9972" /><g
       id="g5773"
       transform="translate(2.5643819e-6,0.61016987)"><text
         id="text5777"
         style="font-variant:normal;font-weight:normal;font-size:7.99424982px;font-family:Helvetica;-inkscape-font-specification:Helvetica;writing-mode:lr-tb;fill:#000000;fill-opacity:1;fill-rule:nonzero;stroke:none"
         transform="matrix(1,0,0,-1,25.9641,40.6148)"><tspan
           id="tspan5775"
           sodipodi:role="line"
           y="0"
           x="0 4.4448032 6.6672044">0.0</tspan></text>
</g><path
       inkscape:connector-curvature="0"
       id="path5779"
       style="fill:none;stroke:#000000;stroke-width:0.57600003;stroke-linecap:butt;stroke-linejoin:miter;stroke-miterlimit:10;stroke-dasharray:none;stroke-opacity:1"
       d="m 43.077303,89.660569 h -3.9972" /><g
       id="g5781"
       transform="translate(2.5643819e-6,0.61016987)"><text
         id="text5785"
         style="font-variant:normal;font-weight:normal;font-size:7.99424982px;font-family:Helvetica;-inkscape-font-specification:Helvetica;writing-mode:lr-tb;fill:#000000;fill-opacity:1;fill-rule:nonzero;stroke:none"
         transform="matrix(1,0,0,-1,25.9641,86.2539)"><tspan
           id="tspan5783"
           sodipodi:role="line"
           y="0"
           x="0 4.4448032 6.6672044">0.1</tspan></text>
</g><path
       inkscape:connector-curvature="0"
       id="path5787"
       style="fill:none;stroke:#000000;stroke-width:0.57600003;stroke-linecap:butt;stroke-linejoin:miter;stroke-miterlimit:10;stroke-dasharray:none;stroke-opacity:1"
       d="m 43.077303,135.28717 h -3.9972" /><g
       id="g5789"
       transform="translate(2.5643819e-6,0.61016987)"><text
         id="text5793"
         style="font-variant:normal;font-weight:normal;font-size:7.99424982px;font-family:Helvetica;-inkscape-font-specification:Helvetica;writing-mode:lr-tb;fill:#000000;fill-opacity:1;fill-rule:nonzero;stroke:none"
         transform="matrix(1,0,0,-1,25.9641,131.88)"><tspan
           id="tspan5791"
           sodipodi:role="line"
           y="0"
           x="0 4.4448032 6.6672044">0.2</tspan></text>
</g><path
       inkscape:connector-curvature="0"
       id="path5795"
       style="fill:none;stroke:#000000;stroke-width:0.57600003;stroke-linecap:butt;stroke-linejoin:miter;stroke-miterlimit:10;stroke-dasharray:none;stroke-opacity:1"
       d="m 43.077303,180.92617 h -3.9972" /><g
       id="g5797"
       transform="translate(2.5643819e-6,0.61016987)"><text
         id="text5801"
         style="font-variant:normal;font-weight:normal;font-size:7.99424982px;font-family:Helvetica;-inkscape-font-specification:Helvetica;writing-mode:lr-tb;fill:#000000;fill-opacity:1;fill-rule:nonzero;stroke:none"
         transform="matrix(1,0,0,-1,25.9641,177.52)"><tspan
           id="tspan5799"
           sodipodi:role="line"
           y="0"
           x="0 4.4448032 6.6672044">0.3</tspan></text>
</g><path
       inkscape:connector-curvature="0"
       id="path5803"
       style="fill:none;stroke:#000000;stroke-width:0.57600003;stroke-linecap:butt;stroke-linejoin:miter;stroke-miterlimit:10;stroke-dasharray:none;stroke-opacity:1"
       d="m 43.077303,226.55317 h -3.9972" /><g
       id="g5805"
       transform="translate(2.5643819e-6,0.61016987)"><text
         id="text5809"
         style="font-variant:normal;font-weight:normal;font-size:7.99424982px;font-family:Helvetica;-inkscape-font-specification:Helvetica;writing-mode:lr-tb;fill:#000000;fill-opacity:1;fill-rule:nonzero;stroke:none"
         transform="matrix(1,0,0,-1,25.9641,223.146)"><tspan
           id="tspan5807"
           sodipodi:role="line"
           y="0"
           x="0 4.4448032 6.6672044">0.4</tspan></text>
</g><path
       inkscape:connector-curvature="0"
       id="path5811"
       style="fill:none;stroke:#000000;stroke-width:0.57600003;stroke-linecap:butt;stroke-linejoin:miter;stroke-miterlimit:10;stroke-dasharray:none;stroke-opacity:1"
       d="m 43.077303,272.18017 h -3.9972" /><g
       id="g5813"
       transform="translate(2.5643819e-6,0.61016987)"><text
         id="text5817"
         style="font-variant:normal;font-weight:normal;font-size:7.99424982px;font-family:Helvetica;-inkscape-font-specification:Helvetica;writing-mode:lr-tb;fill:#000000;fill-opacity:1;fill-rule:nonzero;stroke:none"
         transform="matrix(1,0,0,-1,25.9641,268.773)"><tspan
           id="tspan5815"
           sodipodi:role="line"
           y="0"
           x="0 4.4448032 6.6672044">0.5</tspan></text>
<text
         id="text5821"
         style="font-variant:normal;font-weight:normal;font-size:9.9989996px;font-family:Helvetica;-inkscape-font-specification:Helvetica;writing-mode:lr-tb;fill:#000000;fill-opacity:1;fill-rule:nonzero;stroke:none"
         transform="matrix(0,1,1,0,19.0824,140.829)"><tspan
           id="tspan5819"
           sodipodi:role="line"
           y="0"
           x="0 7.2192779 12.778722 18.338165 23.337666 25.557444 28.337166">Density</tspan></text>
</g><path
       inkscape:connector-curvature="0"
       id="path5823"
       style="fill:none;stroke:#000000;stroke-width:0.57600003;stroke-linecap:butt;stroke-linejoin:miter;stroke-miterlimit:10;stroke-dasharray:none;stroke-opacity:1"
       d="M 43.077303,37.68557 H 385.902" /><path
       inkscape:connector-curvature="0"
       id="path5825"
       style="fill:none;stroke:#000000;stroke-width:0.57600003;stroke-linecap:butt;stroke-linejoin:miter;stroke-miterlimit:10;stroke-dasharray:none;stroke-opacity:1"
       d="m 49.413303,37.68557 v -3.9969" /><g
       id="g5827"
       transform="translate(2.5643819e-6,0.61016987)"><text
         id="text5831"
         style="font-variant:normal;font-weight:normal;font-size:7.99424982px;font-family:Helvetica;-inkscape-font-specification:Helvetica;writing-mode:lr-tb;fill:#000000;fill-opacity:1;fill-rule:nonzero;stroke:none"
         transform="matrix(1,0,0,-1,42.3168,25.4801)"><tspan
           id="tspan5829"
           sodipodi:role="line"
           y="0"
           x="0 4.4448032">10</tspan></text>
<text
         id="text5835"
         style="font-variant:normal;font-weight:normal;font-size:4.65299988px;font-family:Helvetica;-inkscape-font-specification:Helvetica;writing-mode:lr-tb;fill:#000000;fill-opacity:1;fill-rule:nonzero;stroke:none"
         transform="matrix(1,0,0,-1,51.20586,29.66291)"><tspan
           id="tspan5833"
           sodipodi:role="line"
           y="0"
           x="0 2.7173519">−4</tspan></text>
</g><path
       inkscape:connector-curvature="0"
       id="path5837"
       style="fill:none;stroke:#000000;stroke-width:0.57600003;stroke-linecap:butt;stroke-linejoin:miter;stroke-miterlimit:10;stroke-dasharray:none;stroke-opacity:1"
       d="m 90.684003,37.68557 v -3.9969" /><g
       id="g5839"
       transform="translate(2.5643819e-6,0.61016987)"><text
         id="text5843"
         style="font-variant:normal;font-weight:normal;font-size:7.99424982px;font-family:Helvetica;-inkscape-font-specification:Helvetica;writing-mode:lr-tb;fill:#000000;fill-opacity:1;fill-rule:nonzero;stroke:none"
         transform="matrix(1,0,0,-1,83.5875,25.4801)"><tspan
           id="tspan5841"
           sodipodi:role="line"
           y="0"
           x="0 4.4448032">10</tspan></text>
<text
         id="text5847"
         style="font-variant:normal;font-weight:normal;font-size:4.65299988px;font-family:Helvetica;-inkscape-font-specification:Helvetica;writing-mode:lr-tb;fill:#000000;fill-opacity:1;fill-rule:nonzero;stroke:none"
         transform="matrix(1,0,0,-1,92.47656,29.66291)"><tspan
           id="tspan5845"
           sodipodi:role="line"
           y="0"
           x="0 2.7173519">−3</tspan></text>
</g><path
       inkscape:connector-curvature="0"
       id="path5849"
       style="fill:none;stroke:#000000;stroke-width:0.57600003;stroke-linecap:butt;stroke-linejoin:miter;stroke-miterlimit:10;stroke-dasharray:none;stroke-opacity:1"
       d="m 131.955,37.68557 v -3.9969" /><g
       id="g5851"
       transform="translate(2.5643819e-6,0.61016987)"><text
         id="text5855"
         style="font-variant:normal;font-weight:normal;font-size:7.99424982px;font-family:Helvetica;-inkscape-font-specification:Helvetica;writing-mode:lr-tb;fill:#000000;fill-opacity:1;fill-rule:nonzero;stroke:none"
         transform="matrix(1,0,0,-1,124.858,25.4801)"><tspan
           id="tspan5853"
           sodipodi:role="line"
           y="0"
           x="0 4.4448032">10</tspan></text>
<text
         id="text5859"
         style="font-variant:normal;font-weight:normal;font-size:4.65299988px;font-family:Helvetica;-inkscape-font-specification:Helvetica;writing-mode:lr-tb;fill:#000000;fill-opacity:1;fill-rule:nonzero;stroke:none"
         transform="matrix(1,0,0,-1,133.74706,29.66291)"><tspan
           id="tspan5857"
           sodipodi:role="line"
           y="0"
           x="0 2.7173519">−2</tspan></text>
</g><g
       id="g5863"
       transform="translate(2.5643819e-6,0.61016987)"><text
         id="text5867"
         style="font-variant:normal;font-weight:normal;font-size:7.99424982px;font-family:Helvetica;-inkscape-font-specification:Helvetica;writing-mode:lr-tb;fill:#000000;fill-opacity:1;fill-rule:nonzero;stroke:none"
         transform="matrix(1,0,0,-1,166.129,25.4801)"><tspan
           id="tspan5865"
           sodipodi:role="line"
           y="0"
           x="0 4.4448032">10</tspan></text>
<text
         id="text5871"
         style="font-variant:normal;font-weight:normal;font-size:4.65299988px;font-family:Helvetica;-inkscape-font-specification:Helvetica;writing-mode:lr-tb;fill:#000000;fill-opacity:1;fill-rule:nonzero;stroke:none"
         transform="matrix(1,0,0,-1,175.01806,29.66291)"><tspan
           id="tspan5869"
           sodipodi:role="line"
           y="0"
           x="0 2.7173519">−1</tspan></text>
</g><path
       inkscape:connector-curvature="0"
       id="path5873"
       style="fill:none;stroke:#000000;stroke-width:0.57600003;stroke-linecap:butt;stroke-linejoin:miter;stroke-miterlimit:10;stroke-dasharray:none;stroke-opacity:1"
       d="m 214.496,37.68557 v -3.9969" /><g
       id="g5875"
       transform="translate(2.5643819e-6,0.61016987)"><text
         id="text5879"
         style="font-variant:normal;font-weight:normal;font-size:7.99424982px;font-family:Helvetica;-inkscape-font-specification:Helvetica;writing-mode:lr-tb;fill:#000000;fill-opacity:1;fill-rule:nonzero;stroke:none"
         transform="matrix(1,0,0,-1,208.758,25.4801)"><tspan
           id="tspan5877"
           sodipodi:role="line"
           y="0"
           x="0 4.4448032">10</tspan></text>
<text
         id="text5883"
         style="font-variant:normal;font-weight:normal;font-size:4.65299988px;font-family:Helvetica;-inkscape-font-specification:Helvetica;writing-mode:lr-tb;fill:#000000;fill-opacity:1;fill-rule:nonzero;stroke:none"
         transform="matrix(1,0,0,-1,217.64706,29.66291)"><tspan
           id="tspan5881"
           y="0"
           x="0">0</tspan></text>
</g><path
       inkscape:connector-curvature="0"
       id="path5885"
       style="fill:none;stroke:#000000;stroke-width:0.57600003;stroke-linecap:butt;stroke-linejoin:miter;stroke-miterlimit:10;stroke-dasharray:none;stroke-opacity:1"
       d="m 255.766,37.68557 v -3.9969" /><g
       id="g5887"
       transform="translate(2.5643819e-6,0.61016987)"><text
         id="text5891"
         style="font-variant:normal;font-weight:normal;font-size:7.99424982px;font-family:Helvetica;-inkscape-font-specification:Helvetica;writing-mode:lr-tb;fill:#000000;fill-opacity:1;fill-rule:nonzero;stroke:none"
         transform="matrix(1,0,0,-1,250.029,25.4801)"><tspan
           id="tspan5889"
           sodipodi:role="line"
           y="0"
           x="0 4.4448032">10</tspan></text>
<text
         id="text5895"
         style="font-variant:normal;font-weight:normal;font-size:4.65299988px;font-family:Helvetica;-inkscape-font-specification:Helvetica;writing-mode:lr-tb;fill:#000000;fill-opacity:1;fill-rule:nonzero;stroke:none"
         transform="matrix(1,0,0,-1,258.91806,29.66291)"><tspan
           id="tspan5893"
           y="0"
           x="0">1</tspan></text>
</g><path
       inkscape:connector-curvature="0"
       id="path5897"
       style="fill:none;stroke:#000000;stroke-width:0.57600003;stroke-linecap:butt;stroke-linejoin:miter;stroke-miterlimit:10;stroke-dasharray:none;stroke-opacity:1"
       d="m 297.037,37.68557 v -3.9969" /><g
       id="g5899"
       transform="translate(2.5643819e-6,0.61016987)"><text
         id="text5903"
         style="font-variant:normal;font-weight:normal;font-size:7.99424982px;font-family:Helvetica;-inkscape-font-specification:Helvetica;writing-mode:lr-tb;fill:#000000;fill-opacity:1;fill-rule:nonzero;stroke:none"
         transform="matrix(1,0,0,-1,291.299,25.4801)"><tspan
           id="tspan5901"
           sodipodi:role="line"
           y="0"
           x="0 4.4448032">10</tspan></text>
<text
         id="text5907"
         style="font-variant:normal;font-weight:normal;font-size:4.65299988px;font-family:Helvetica;-inkscape-font-specification:Helvetica;writing-mode:lr-tb;fill:#000000;fill-opacity:1;fill-rule:nonzero;stroke:none"
         transform="matrix(1,0,0,-1,300.18806,29.66291)"><tspan
           id="tspan5905"
           y="0"
           x="0">2</tspan></text>
</g><path
       inkscape:connector-curvature="0"
       id="path5909"
       style="fill:none;stroke:#000000;stroke-width:0.57600003;stroke-linecap:butt;stroke-linejoin:miter;stroke-miterlimit:10;stroke-dasharray:none;stroke-opacity:1"
       d="m 338.308,37.68557 v -3.9969" /><g
       id="g5911"
       transform="translate(2.5643819e-6,0.61016987)"><text
         id="text5915"
         style="font-variant:normal;font-weight:normal;font-size:7.99424982px;font-family:Helvetica;-inkscape-font-specification:Helvetica;writing-mode:lr-tb;fill:#000000;fill-opacity:1;fill-rule:nonzero;stroke:none"
         transform="matrix(1,0,0,-1,332.57,25.4801)"><tspan
           id="tspan5913"
           sodipodi:role="line"
           y="0"
           x="0 4.4448032">10</tspan></text>
<text
         id="text5919"
         style="font-variant:normal;font-weight:normal;font-size:4.65299988px;font-family:Helvetica;-inkscape-font-specification:Helvetica;writing-mode:lr-tb;fill:#000000;fill-opacity:1;fill-rule:nonzero;stroke:none"
         transform="matrix(1,0,0,-1,341.45906,29.66291)"><tspan
           id="tspan5917"
           y="0"
           x="0">3</tspan></text>
</g><path
       inkscape:connector-curvature="0"
       id="path5921"
       style="fill:none;stroke:#000000;stroke-width:0.57600003;stroke-linecap:butt;stroke-linejoin:miter;stroke-miterlimit:10;stroke-dasharray:none;stroke-opacity:1"
       d="m 379.579,37.68557 v -3.9969" /><path
       inkscape:connector-curvature="0"
       id="path5979"
       style="fill:none;stroke:#000000;stroke-width:0.51547939;stroke-linecap:butt;stroke-linejoin:miter;stroke-miterlimit:10;stroke-dasharray:none;stroke-opacity:1"
       d="M 43.078582,135.36254 H 39.080103" /><path
       inkscape:connector-curvature="0"
       id="path5987"
       style="fill:none;stroke:#000000;stroke-width:0.51547939;stroke-linecap:butt;stroke-linejoin:miter;stroke-miterlimit:10;stroke-dasharray:none;stroke-opacity:1"
       d="M 43.078582,181.02879 H 39.080103" /><path
       inkscape:connector-curvature="0"
       id="path5995"
       style="fill:none;stroke:#000000;stroke-width:0.51547939;stroke-linecap:butt;stroke-linejoin:miter;stroke-miterlimit:10;stroke-dasharray:none;stroke-opacity:1"
       d="M 43.078582,226.69504 H 39.080103" /><path
       d="M 43.132624,44.02147 H 39.080108"
       style="fill:none;stroke:#000000;stroke-width:0.41833648;stroke-linecap:butt;stroke-linejoin:miter;stroke-miterlimit:10;stroke-dasharray:none;stroke-opacity:1"
       id="path10360"
       inkscape:connector-curvature="0" /><path
       d="M 43.132624,89.71204 H 39.080108"
       style="fill:none;stroke:#000000;stroke-width:0.41833648;stroke-linecap:butt;stroke-linejoin:miter;stroke-miterlimit:10;stroke-dasharray:none;stroke-opacity:1"
       id="path10376"
       inkscape:connector-curvature="0" /><g
       transform="matrix(1.0139149,0,0,0.52024146,-5.2743095,21.437113)"
       id="g10394" /><path
       inkscape:connector-curvature="0"
       id="path11423"
       style="fill:none;stroke:#000000;stroke-width:0.51521999;stroke-linecap:butt;stroke-linejoin:miter;stroke-miterlimit:10;stroke-dasharray:none;stroke-opacity:1"
       d="M 43.077313,44.02147 H 39.080114" /><path
       inkscape:connector-curvature="0"
       id="path11431"
       style="fill:none;stroke:#000000;stroke-width:0.51521999;stroke-linecap:butt;stroke-linejoin:miter;stroke-miterlimit:10;stroke-dasharray:none;stroke-opacity:1"
       d="M 43.077313,89.656132 H 39.080114" /><path
       inkscape:connector-curvature="0"
       id="path11505"
       style="fill:none;stroke:#000000;stroke-width:0.51521999;stroke-linecap:butt;stroke-linejoin:miter;stroke-miterlimit:10;stroke-dasharray:none;stroke-opacity:1"
       d="M 173.22502,37.452159 V 34.254267" /><g
       style="display:inline"
       id="g12373"
       transform="matrix(0.75000002,0,0,-0.75000002,0.43145499,287.56855)"><g
         id="g12366"><text
           style="font-variant:normal;font-weight:normal;font-size:10.65899944px;font-family:Helvetica;-inkscape-font-specification:Helvetica;writing-mode:lr-tb;fill:#000000;fill-opacity:1;fill-rule:nonzero;stroke:none;stroke-width:1.33333325"
           id="text12215"
           x="496.57858"
           y="348.45261"><tspan
             x="496.57858 502.50497"
             y="348.45261"
             sodipodi:role="line"
             id="tspan12213"
             style="stroke-width:1.33333325">10</tspan></text>
</g><text
         y="342.87552"
         x="508.43066"
         id="text12219"
         style="font-variant:normal;font-weight:normal;font-size:6.20399952px;font-family:Helvetica;-inkscape-font-specification:Helvetica;writing-mode:lr-tb;fill:#000000;fill-opacity:1;fill-rule:nonzero;stroke:none;stroke-width:1.33333325"><tspan
           style="stroke-width:1.33333325"
           id="tspan12217"
           y="342.87552"
           x="508.43066">4</tspan></text>
</g></g></svg>